<svg width="24" height="24" viewBox="0 0 24 24" fill="none" xmlns="http://www.w3.org/2000/svg">
<g clip-path="url(#clip0)">
<path d="M23.5308 6.01712L12.234 2.03129C12.0826 1.97785 11.9175 1.97785 11.7661 2.03129L0.469219 6.01712C0.188344 6.11621 0.000375562 6.38152 5.61892e-07 6.67937C-0.000374438 6.97721 0.186985 7.24295 0.467626 7.3427L11.7645 11.3588C11.8407 11.3859 11.9204 11.3994 12 11.3994C12.0797 11.3994 12.1593 11.3859 12.2355 11.3588L23.5324 7.3427C23.813 7.24295 24.0003 6.97721 24 6.67937C23.9996 6.38152 23.8117 6.11621 23.5308 6.01712Z" fill="#AFAFAF"/>
<path d="M22.3125 15.4022V9.26904L20.9062 9.76897V15.4022C20.4827 15.646 20.1973 16.1028 20.1973 16.6266C20.1973 17.1504 20.4827 17.6072 20.9062 17.851V21.3065C20.9062 21.6948 21.2211 22.0096 21.6094 22.0096C21.9977 22.0096 22.3125 21.6948 22.3125 21.3065V17.8511C22.7361 17.6073 23.0215 17.1504 23.0215 16.6266C23.0215 16.1028 22.7361 15.646 22.3125 15.4022Z" fill="#AFAFAF"/>
<path d="M11.9987 12.8049C11.7574 12.8049 11.5197 12.7639 11.2922 12.683L4.94141 10.4253V13.5194C4.94141 14.2764 5.73111 14.9166 7.28858 15.4221C8.64613 15.8627 10.3189 16.1054 11.9987 16.1054C13.6785 16.1054 15.3513 15.8627 16.7089 15.4221C18.2663 14.9166 19.056 14.2764 19.056 13.5194V10.4253L12.7053 12.683C12.4778 12.7639 12.2401 12.8049 11.9987 12.8049Z" fill="#AFAFAF"/>
</g>
<defs>
<clipPath id="clip0">
<rect width="24" height="24" fill="white"/>
</clipPath>
</defs>
</svg>
