<svg width="24" height="24" viewBox="0 0 24 24" fill="none" xmlns="http://www.w3.org/2000/svg">
<g clip-path="url(#clip0)">
<path d="M22 5.00005H17V4.00002C17 2.897 16.1031 2 15 2H9C7.89698 2 6.99998 2.89695 6.99998 4.00002V5H2.00002C0.896953 5.00005 0 5.897 0 7.00002V10C0 11.1031 0.896953 12 2.00002 12H10V11.5C10 11.2236 10.2237 11 10.5 11H13.5C13.7764 11 14.0001 11.2236 14.0001 11.5V12H22.0001C23.103 12 24 11.1031 24 10V7.00002C24 5.897 23.103 5.00005 22 5.00005ZM15 5.00005H9V4.00002H15V5.00005Z" fill="#AFAFAF"/>
<path d="M23.7226 12.5396C23.5522 12.4552 23.3486 12.4747 23.1982 12.5889C22.8427 12.858 22.4287 13.0001 21.9999 13.0001H14V14.5001C14 14.7765 13.7764 15.0001 13.5 15.0001H10.5C10.2236 15.0001 9.99998 14.7765 9.99998 14.5001V13.0001H2.00002C1.5713 13.0001 1.15725 12.858 0.80175 12.5889C0.650859 12.4737 0.44775 12.4542 0.277312 12.5396C0.107437 12.6241 0 12.7974 0 12.9874V20.0001C0 21.1031 0.896953 22.0001 2.00002 22.0001H22C23.103 22.0001 24 21.1032 24 20.0001V12.9874C24 12.7974 23.8926 12.6241 23.7226 12.5396Z" fill="#AFAFAF"/>
</g>
<defs>
<clipPath id="clip0">
<rect width="24" height="24" fill="white"/>
</clipPath>
</defs>
</svg>
