<svg width="24" height="24" viewBox="0 0 24 24" fill="none" xmlns="http://www.w3.org/2000/svg">
<path d="M4.08594 9.83386L12.0003 12.4573L19.9146 9.83386L12.0003 7.21045L4.08594 9.83386Z" fill="#AFAFAF"/>
<path d="M21.8474 10.6748L13.0732 13.5833L15.2223 16.9969L23.9965 14.0884L21.8474 10.6748Z" fill="#AFAFAF"/>
<path d="M11.2974 15.6348L9.38142 18.6782L2.55469 16.4153V21.102L11.2974 24.0001V15.6348Z" fill="#AFAFAF"/>
<path d="M14.6191 18.6782L12.7031 15.6348V24.0001L21.4459 21.102V16.4153L14.6191 18.6782Z" fill="#AFAFAF"/>
<path d="M8.77811 16.9969L10.9271 13.5833L2.15298 10.6748L0.00390625 14.0884L8.77811 16.9969Z" fill="#AFAFAF"/>
<path d="M11.2969 0H12.7031V4.69566H11.2969V0Z" fill="#AFAFAF"/>
<path d="M4.68457 2.14893L5.90238 1.4458L8.25021 5.51224L7.0324 6.21536L4.68457 2.14893Z" fill="#AFAFAF"/>
<path d="M15.751 5.51221L18.0988 1.44577L19.3166 2.14889L16.9688 6.21533L15.751 5.51221Z" fill="#AFAFAF"/>
</svg>
